<?xml version="1.0" encoding="UTF-8" standalone="no"?>
<!DOCTYPE svg PUBLIC "-//W3C//DTD SVG 1.1//EN"
 "http://www.w3.org/Graphics/SVG/1.1/DTD/svg11.dtd">
<!-- Generated by graphviz version 9.0.0 (20230911.1827)
 -->
<!-- Title: structs Pages: 1 -->
<svg width="2402pt" height="126pt"
 viewBox="0.00 0.00 2402.35 125.50" xmlns="http://www.w3.org/2000/svg" xmlns:xlink="http://www.w3.org/1999/xlink">
<g id="graph0" class="graph" transform="scale(1 1) rotate(0) translate(4 121.5)">
<title>structs</title>
<polygon fill="white" stroke="none" points="-4,4 -4,-121.5 2398.35,-121.5 2398.35,4 -4,4"/>
<!-- dup0 -->
<g id="node1" class="node">
<title>dup0</title>
<ellipse fill="black" stroke="black" cx="338.8" cy="-42.75" rx="1.8" ry="1.8"/>
</g>
<!-- processing1 -->
<g id="node2" class="node">
<title>processing1</title>
<polygon fill="none" stroke="none" points="419.1,-72 419.1,-113.5 530.35,-113.5 530.35,-72 419.1,-72"/>
<polygon fill="none" stroke="black" points="419.1,-72 419.1,-113.5 530.35,-113.5 530.35,-72 419.1,-72"/>
<text text-anchor="start" x="440.98" y="-95.2" font-family="Times New Roman,serif" font-size="14.00">processing1</text>
<text text-anchor="start" x="424.1" y="-79.45" font-family="Times New Roman,serif" font-size="14.00">(ProcessingNode)</text>
</g>
<!-- dup0&#45;&gt;processing1 -->
<g id="edge14" class="edge">
<title>dup0&#45;&gt;processing1:i</title>
<path fill="none" stroke="black" d="M340.77,-43.49C343.46,-45.53 351.33,-51.29 358.6,-54.75 375.85,-62.94 395.34,-70.1 413.31,-75.93"/>
<polygon fill="black" stroke="black" points="412.6,-77.54 417.9,-77.4 413.66,-74.21 412.6,-77.54"/>
<text text-anchor="start" x="361.6" y="-71.6" font-family="Times New Roman,serif" font-size="12.00">f32(7)</text>
<text text-anchor="start" x="407.34" y="-60.46" font-family="Times New Roman,serif" font-size="12.00" fill="blue">7</text>
</g>
<!-- sinka -->
<g id="node13" class="node">
<title>sinka</title>
<polygon fill="none" stroke="none" points="452.85,-4 452.85,-45.5 496.6,-45.5 496.6,-4 452.85,-4"/>
<polygon fill="none" stroke="black" points="452.85,-4 452.85,-45.5 496.6,-45.5 496.6,-4 452.85,-4"/>
<text text-anchor="start" x="460.48" y="-27.2" font-family="Times New Roman,serif" font-size="14.00">sinka</text>
<text text-anchor="start" x="457.85" y="-11.45" font-family="Times New Roman,serif" font-size="14.00">(Sink)</text>
</g>
<!-- dup0&#45;&gt;sinka -->
<g id="edge13" class="edge">
<title>dup0&#45;&gt;sinka:i</title>
<path fill="none" stroke="black" d="M340.66,-42.64C348.62,-41.57 410.28,-33.28 446.81,-28.37"/>
<polygon fill="black" stroke="black" points="446.66,-30.15 451.38,-27.75 446.19,-26.68 446.66,-30.15"/>
<text text-anchor="start" x="358.6" y="-43.6" font-family="Times New Roman,serif" font-size="12.00">f32(11)</text>
<text text-anchor="start" x="440.88" y="-36.4" font-family="Times New Roman,serif" font-size="12.00" fill="blue">5</text>
</g>
<!-- processing2 -->
<g id="node4" class="node">
<title>processing2</title>
<polygon fill="none" stroke="none" points="610.85,-72 610.85,-113.5 722.1,-113.5 722.1,-72 610.85,-72"/>
<polygon fill="none" stroke="black" points="610.85,-72 610.85,-113.5 722.1,-113.5 722.1,-72 610.85,-72"/>
<text text-anchor="start" x="632.73" y="-95.2" font-family="Times New Roman,serif" font-size="14.00">processing2</text>
<text text-anchor="start" x="615.85" y="-79.45" font-family="Times New Roman,serif" font-size="14.00">(ProcessingNode)</text>
</g>
<!-- processing1&#45;&gt;processing2 -->
<g id="edge2" class="edge">
<title>processing1:i&#45;&gt;processing2:i</title>
<path fill="none" stroke="black" d="M530.1,-92.75C553.42,-92.75 580.77,-92.75 604.75,-92.75"/>
<polygon fill="black" stroke="black" points="604.58,-94.5 609.58,-92.75 604.58,-91 604.58,-94.5"/>
<text text-anchor="start" x="556.35" y="-95.6" font-family="Times New Roman,serif" font-size="12.00">f32(7)</text>
<text text-anchor="start" x="599.09" y="-75.35" font-family="Times New Roman,serif" font-size="12.00" fill="blue">7</text>
<text text-anchor="start" x="536.1" y="-75.35" font-family="Times New Roman,serif" font-size="12.00" fill="blue">7</text>
</g>
<!-- processing10 -->
<g id="node3" class="node">
<title>processing10</title>
<polygon fill="none" stroke="none" points="2144.85,-72 2144.85,-113.5 2256.1,-113.5 2256.1,-72 2144.85,-72"/>
<polygon fill="none" stroke="black" points="2144.85,-72 2144.85,-113.5 2256.1,-113.5 2256.1,-72 2144.85,-72"/>
<text text-anchor="start" x="2163.35" y="-95.2" font-family="Times New Roman,serif" font-size="14.00">processing10</text>
<text text-anchor="start" x="2149.85" y="-79.45" font-family="Times New Roman,serif" font-size="14.00">(ProcessingNode)</text>
</g>
<!-- sinkb -->
<g id="node14" class="node">
<title>sinkb</title>
<polygon fill="none" stroke="none" points="2342.6,-72 2342.6,-113.5 2386.35,-113.5 2386.35,-72 2342.6,-72"/>
<polygon fill="none" stroke="black" points="2342.6,-72 2342.6,-113.5 2386.35,-113.5 2386.35,-72 2342.6,-72"/>
<text text-anchor="start" x="2349.48" y="-95.2" font-family="Times New Roman,serif" font-size="14.00">sinkb</text>
<text text-anchor="start" x="2347.6" y="-79.45" font-family="Times New Roman,serif" font-size="14.00">(Sink)</text>
</g>
<!-- processing10&#45;&gt;sinkb -->
<g id="edge11" class="edge">
<title>processing10:i&#45;&gt;sinkb:i</title>
<path fill="none" stroke="black" d="M2255.87,-92.75C2282.86,-92.75 2314.28,-92.75 2336.18,-92.75"/>
<polygon fill="black" stroke="black" points="2336.14,-94.5 2341.14,-92.75 2336.14,-91 2336.14,-94.5"/>
<text text-anchor="start" x="2282.1" y="-95.6" font-family="Times New Roman,serif" font-size="12.00">f32(11)</text>
<text text-anchor="start" x="2330.65" y="-75.35" font-family="Times New Roman,serif" font-size="12.00" fill="blue">5</text>
<text text-anchor="start" x="2261.87" y="-75.35" font-family="Times New Roman,serif" font-size="12.00" fill="blue">7</text>
</g>
<!-- processing3 -->
<g id="node5" class="node">
<title>processing3</title>
<polygon fill="none" stroke="none" points="802.6,-72 802.6,-113.5 913.85,-113.5 913.85,-72 802.6,-72"/>
<polygon fill="none" stroke="black" points="802.6,-72 802.6,-113.5 913.85,-113.5 913.85,-72 802.6,-72"/>
<text text-anchor="start" x="824.48" y="-95.2" font-family="Times New Roman,serif" font-size="14.00">processing3</text>
<text text-anchor="start" x="807.6" y="-79.45" font-family="Times New Roman,serif" font-size="14.00">(ProcessingNode)</text>
</g>
<!-- processing2&#45;&gt;processing3 -->
<g id="edge3" class="edge">
<title>processing2:i&#45;&gt;processing3:i</title>
<path fill="none" stroke="black" d="M721.85,-92.75C745.17,-92.75 772.52,-92.75 796.5,-92.75"/>
<polygon fill="black" stroke="black" points="796.33,-94.5 801.33,-92.75 796.33,-91 796.33,-94.5"/>
<text text-anchor="start" x="748.1" y="-95.6" font-family="Times New Roman,serif" font-size="12.00">f32(7)</text>
<text text-anchor="start" x="790.84" y="-75.35" font-family="Times New Roman,serif" font-size="12.00" fill="blue">7</text>
<text text-anchor="start" x="727.85" y="-75.35" font-family="Times New Roman,serif" font-size="12.00" fill="blue">7</text>
</g>
<!-- processing4 -->
<g id="node6" class="node">
<title>processing4</title>
<polygon fill="none" stroke="none" points="994.35,-72 994.35,-113.5 1105.6,-113.5 1105.6,-72 994.35,-72"/>
<polygon fill="none" stroke="black" points="994.35,-72 994.35,-113.5 1105.6,-113.5 1105.6,-72 994.35,-72"/>
<text text-anchor="start" x="1016.23" y="-95.2" font-family="Times New Roman,serif" font-size="14.00">processing4</text>
<text text-anchor="start" x="999.35" y="-79.45" font-family="Times New Roman,serif" font-size="14.00">(ProcessingNode)</text>
</g>
<!-- processing3&#45;&gt;processing4 -->
<g id="edge4" class="edge">
<title>processing3:i&#45;&gt;processing4:i</title>
<path fill="none" stroke="black" d="M913.6,-92.75C936.92,-92.75 964.27,-92.75 988.25,-92.75"/>
<polygon fill="black" stroke="black" points="988.08,-94.5 993.08,-92.75 988.08,-91 988.08,-94.5"/>
<text text-anchor="start" x="939.85" y="-95.6" font-family="Times New Roman,serif" font-size="12.00">f32(7)</text>
<text text-anchor="start" x="982.59" y="-75.35" font-family="Times New Roman,serif" font-size="12.00" fill="blue">7</text>
<text text-anchor="start" x="919.6" y="-75.35" font-family="Times New Roman,serif" font-size="12.00" fill="blue">7</text>
</g>
<!-- processing5 -->
<g id="node7" class="node">
<title>processing5</title>
<polygon fill="none" stroke="none" points="1186.1,-72 1186.1,-113.5 1297.35,-113.5 1297.35,-72 1186.1,-72"/>
<polygon fill="none" stroke="black" points="1186.1,-72 1186.1,-113.5 1297.35,-113.5 1297.35,-72 1186.1,-72"/>
<text text-anchor="start" x="1207.98" y="-95.2" font-family="Times New Roman,serif" font-size="14.00">processing5</text>
<text text-anchor="start" x="1191.1" y="-79.45" font-family="Times New Roman,serif" font-size="14.00">(ProcessingNode)</text>
</g>
<!-- processing4&#45;&gt;processing5 -->
<g id="edge5" class="edge">
<title>processing4:i&#45;&gt;processing5:i</title>
<path fill="none" stroke="black" d="M1105.35,-92.75C1128.67,-92.75 1156.02,-92.75 1180,-92.75"/>
<polygon fill="black" stroke="black" points="1179.83,-94.5 1184.83,-92.75 1179.83,-91 1179.83,-94.5"/>
<text text-anchor="start" x="1131.6" y="-95.6" font-family="Times New Roman,serif" font-size="12.00">f32(7)</text>
<text text-anchor="start" x="1174.34" y="-75.35" font-family="Times New Roman,serif" font-size="12.00" fill="blue">7</text>
<text text-anchor="start" x="1111.35" y="-75.35" font-family="Times New Roman,serif" font-size="12.00" fill="blue">7</text>
</g>
<!-- processing6 -->
<g id="node8" class="node">
<title>processing6</title>
<polygon fill="none" stroke="none" points="1377.85,-72 1377.85,-113.5 1489.1,-113.5 1489.1,-72 1377.85,-72"/>
<polygon fill="none" stroke="black" points="1377.85,-72 1377.85,-113.5 1489.1,-113.5 1489.1,-72 1377.85,-72"/>
<text text-anchor="start" x="1399.73" y="-95.2" font-family="Times New Roman,serif" font-size="14.00">processing6</text>
<text text-anchor="start" x="1382.85" y="-79.45" font-family="Times New Roman,serif" font-size="14.00">(ProcessingNode)</text>
</g>
<!-- processing5&#45;&gt;processing6 -->
<g id="edge6" class="edge">
<title>processing5:i&#45;&gt;processing6:i</title>
<path fill="none" stroke="black" d="M1297.1,-92.75C1320.42,-92.75 1347.77,-92.75 1371.75,-92.75"/>
<polygon fill="black" stroke="black" points="1371.58,-94.5 1376.58,-92.75 1371.58,-91 1371.58,-94.5"/>
<text text-anchor="start" x="1323.35" y="-95.6" font-family="Times New Roman,serif" font-size="12.00">f32(7)</text>
<text text-anchor="start" x="1366.09" y="-75.35" font-family="Times New Roman,serif" font-size="12.00" fill="blue">7</text>
<text text-anchor="start" x="1303.1" y="-75.35" font-family="Times New Roman,serif" font-size="12.00" fill="blue">7</text>
</g>
<!-- processing7 -->
<g id="node9" class="node">
<title>processing7</title>
<polygon fill="none" stroke="none" points="1569.6,-72 1569.6,-113.5 1680.85,-113.5 1680.85,-72 1569.6,-72"/>
<polygon fill="none" stroke="black" points="1569.6,-72 1569.6,-113.5 1680.85,-113.5 1680.85,-72 1569.6,-72"/>
<text text-anchor="start" x="1591.48" y="-95.2" font-family="Times New Roman,serif" font-size="14.00">processing7</text>
<text text-anchor="start" x="1574.6" y="-79.45" font-family="Times New Roman,serif" font-size="14.00">(ProcessingNode)</text>
</g>
<!-- processing6&#45;&gt;processing7 -->
<g id="edge7" class="edge">
<title>processing6:i&#45;&gt;processing7:i</title>
<path fill="none" stroke="black" d="M1488.85,-92.75C1512.17,-92.75 1539.52,-92.75 1563.5,-92.75"/>
<polygon fill="black" stroke="black" points="1563.33,-94.5 1568.33,-92.75 1563.33,-91 1563.33,-94.5"/>
<text text-anchor="start" x="1515.1" y="-95.6" font-family="Times New Roman,serif" font-size="12.00">f32(7)</text>
<text text-anchor="start" x="1557.84" y="-75.35" font-family="Times New Roman,serif" font-size="12.00" fill="blue">7</text>
<text text-anchor="start" x="1494.85" y="-75.35" font-family="Times New Roman,serif" font-size="12.00" fill="blue">7</text>
</g>
<!-- processing8 -->
<g id="node10" class="node">
<title>processing8</title>
<polygon fill="none" stroke="none" points="1761.35,-72 1761.35,-113.5 1872.6,-113.5 1872.6,-72 1761.35,-72"/>
<polygon fill="none" stroke="black" points="1761.35,-72 1761.35,-113.5 1872.6,-113.5 1872.6,-72 1761.35,-72"/>
<text text-anchor="start" x="1783.23" y="-95.2" font-family="Times New Roman,serif" font-size="14.00">processing8</text>
<text text-anchor="start" x="1766.35" y="-79.45" font-family="Times New Roman,serif" font-size="14.00">(ProcessingNode)</text>
</g>
<!-- processing7&#45;&gt;processing8 -->
<g id="edge8" class="edge">
<title>processing7:i&#45;&gt;processing8:i</title>
<path fill="none" stroke="black" d="M1680.6,-92.75C1703.92,-92.75 1731.27,-92.75 1755.25,-92.75"/>
<polygon fill="black" stroke="black" points="1755.08,-94.5 1760.08,-92.75 1755.08,-91 1755.08,-94.5"/>
<text text-anchor="start" x="1706.85" y="-95.6" font-family="Times New Roman,serif" font-size="12.00">f32(7)</text>
<text text-anchor="start" x="1749.59" y="-75.35" font-family="Times New Roman,serif" font-size="12.00" fill="blue">7</text>
<text text-anchor="start" x="1686.6" y="-75.35" font-family="Times New Roman,serif" font-size="12.00" fill="blue">7</text>
</g>
<!-- processing9 -->
<g id="node11" class="node">
<title>processing9</title>
<polygon fill="none" stroke="none" points="1953.1,-72 1953.1,-113.5 2064.35,-113.5 2064.35,-72 1953.1,-72"/>
<polygon fill="none" stroke="black" points="1953.1,-72 1953.1,-113.5 2064.35,-113.5 2064.35,-72 1953.1,-72"/>
<text text-anchor="start" x="1974.98" y="-95.2" font-family="Times New Roman,serif" font-size="14.00">processing9</text>
<text text-anchor="start" x="1958.1" y="-79.45" font-family="Times New Roman,serif" font-size="14.00">(ProcessingNode)</text>
</g>
<!-- processing8&#45;&gt;processing9 -->
<g id="edge9" class="edge">
<title>processing8:i&#45;&gt;processing9:i</title>
<path fill="none" stroke="black" d="M1872.35,-92.75C1895.67,-92.75 1923.02,-92.75 1947,-92.75"/>
<polygon fill="black" stroke="black" points="1946.83,-94.5 1951.83,-92.75 1946.83,-91 1946.83,-94.5"/>
<text text-anchor="start" x="1898.6" y="-95.6" font-family="Times New Roman,serif" font-size="12.00">f32(7)</text>
<text text-anchor="start" x="1941.34" y="-75.35" font-family="Times New Roman,serif" font-size="12.00" fill="blue">7</text>
<text text-anchor="start" x="1878.35" y="-75.35" font-family="Times New Roman,serif" font-size="12.00" fill="blue">7</text>
</g>
<!-- processing9&#45;&gt;processing10 -->
<g id="edge10" class="edge">
<title>processing9:i&#45;&gt;processing10:i</title>
<path fill="none" stroke="black" d="M2064.1,-92.75C2087.42,-92.75 2114.77,-92.75 2138.75,-92.75"/>
<polygon fill="black" stroke="black" points="2138.58,-94.5 2143.58,-92.75 2138.58,-91 2138.58,-94.5"/>
<text text-anchor="start" x="2090.35" y="-95.6" font-family="Times New Roman,serif" font-size="12.00">f32(7)</text>
<text text-anchor="start" x="2133.09" y="-75.35" font-family="Times New Roman,serif" font-size="12.00" fill="blue">7</text>
<text text-anchor="start" x="2070.1" y="-75.35" font-family="Times New Roman,serif" font-size="12.00" fill="blue">7</text>
</g>
<!-- processinga -->
<g id="node12" class="node">
<title>processinga</title>
<polygon fill="none" stroke="none" points="153.25,-22 153.25,-63.5 264.5,-63.5 264.5,-22 153.25,-22"/>
<polygon fill="none" stroke="black" points="153.25,-22 153.25,-63.5 264.5,-63.5 264.5,-22 153.25,-22"/>
<text text-anchor="start" x="175.5" y="-45.2" font-family="Times New Roman,serif" font-size="14.00">processinga</text>
<text text-anchor="start" x="158.25" y="-29.45" font-family="Times New Roman,serif" font-size="14.00">(ProcessingNode)</text>
</g>
<!-- processinga&#45;&gt;dup0 -->
<g id="edge12" class="edge">
<title>processinga:i&#45;&gt;dup0</title>
<path fill="none" stroke="black" d="M264.5,-42.75C290.1,-42.75 317.74,-42.75 330.54,-42.75"/>
<polygon fill="black" stroke="black" points="330.31,-44.5 335.31,-42.75 330.31,-41 330.31,-44.5"/>
<text text-anchor="start" x="290.5" y="-45.6" font-family="Times New Roman,serif" font-size="12.00">f32(7)</text>
<text text-anchor="start" x="270.5" y="-25.35" font-family="Times New Roman,serif" font-size="12.00" fill="blue">7</text>
</g>
<!-- source -->
<g id="node15" class="node">
<title>source</title>
<polygon fill="none" stroke="none" points="8,-22 8,-63.5 66.75,-63.5 66.75,-22 8,-22"/>
<polygon fill="none" stroke="black" points="8,-22 8,-63.5 66.75,-63.5 66.75,-22 8,-22"/>
<text text-anchor="start" x="18.62" y="-45.2" font-family="Times New Roman,serif" font-size="14.00">source</text>
<text text-anchor="start" x="13" y="-29.45" font-family="Times New Roman,serif" font-size="14.00">(Source)</text>
</g>
<!-- source&#45;&gt;processinga -->
<g id="edge1" class="edge">
<title>source:i&#45;&gt;processinga:i</title>
<path fill="none" stroke="black" d="M66.75,-42.75C88.56,-42.75 119.49,-42.75 146.84,-42.75"/>
<polygon fill="black" stroke="black" points="146.83,-44.5 151.82,-42.75 146.82,-41 146.83,-44.5"/>
<text text-anchor="start" x="92.75" y="-45.6" font-family="Times New Roman,serif" font-size="12.00">f32(11)</text>
<text text-anchor="start" x="141.34" y="-25.35" font-family="Times New Roman,serif" font-size="12.00" fill="blue">7</text>
<text text-anchor="start" x="72.75" y="-25.35" font-family="Times New Roman,serif" font-size="12.00" fill="blue">5</text>
</g>
</g>
</svg>
